<svg version="1.1" id="Layer_1" xmlns="http://www.w3.org/2000/svg" xmlns:xlink="http://www.w3.org/1999/xlink" x="0px" y="0px"
	 width="100%" viewBox="0 0 782 782" enable-background="new 0 0 782 782" xml:space="preserve">
<path fill="#000000" opacity="1.000000" stroke="none" 
	d="
M431.000000,783.000000 
	C287.333344,783.000000 144.166672,783.000000 1.000000,783.000000 
	C1.000000,522.333313 1.000000,261.666656 1.000000,1.000000 
	C261.666656,1.000000 522.333313,1.000000 783.000000,1.000000 
	C783.000000,261.666656 783.000000,522.333313 783.000000,783.000000 
	C665.833313,783.000000 548.666687,783.000000 431.000000,783.000000 
M287.005768,387.012817 
	C285.733368,392.824280 288.234436,396.790649 292.989166,399.883545 
	C295.231049,401.341858 297.143188,403.307129 299.204742,405.042694 
	C299.031189,405.406281 298.857635,405.769836 298.684082,406.133423 
	C294.816162,406.133423 290.948273,406.133423 287.203308,406.133423 
	C287.203308,408.794769 287.203308,410.913239 287.203308,413.724915 
	C297.069458,413.724915 306.716583,413.724915 317.606201,413.724915 
	C313.238953,417.398468 309.961792,420.155060 306.546875,423.027557 
	C305.677399,421.843262 305.123016,420.243256 304.114380,419.869720 
	C300.848175,418.660004 297.190582,416.735657 294.116272,417.328735 
	C291.565247,417.820831 288.262543,421.192657 287.709656,423.801025 
	C286.681793,428.650391 287.414917,433.872986 287.414917,439.228882 
	C296.292786,439.228882 304.837280,439.228882 313.381775,439.228882 
	C305.953888,443.105957 298.337921,446.217804 290.683228,449.231293 
	C288.392120,450.133301 286.829712,450.989288 286.825806,454.079987 
	C286.821808,457.254364 288.160614,458.335297 290.782349,459.330261 
	C297.395966,461.840302 303.897736,464.645111 310.444336,467.331787 
	C310.386993,467.698151 310.329651,468.064484 310.272308,468.430847 
	C302.579102,469.181427 294.885895,469.931976 287.560333,470.646698 
	C285.464478,476.746368 287.698486,479.690460 293.255127,481.132233 
	C297.089539,482.127197 300.703705,483.970825 305.479492,485.854523 
	C298.578766,488.565979 292.892975,490.800079 287.308777,492.994232 
	C287.308777,495.806549 287.308777,498.367859 287.308777,501.076355 
	C298.185211,502.049316 308.743286,502.993805 319.551941,503.960693 
	C319.551941,501.236908 319.551941,499.006775 319.551941,496.521454 
	C313.733917,495.982758 308.138641,495.464661 302.543365,494.946564 
	C307.171265,492.448364 311.885468,490.920105 316.463226,489.056580 
	C317.719513,488.545166 319.552124,486.820770 319.382263,486.023010 
	C319.094818,484.673157 317.640594,483.100128 316.293335,482.534271 
	C311.909729,480.693237 307.352417,479.265808 302.861969,477.679199 
	C302.896484,477.350433 302.931000,477.021667 302.965515,476.692902 
	C308.495667,476.170776 314.025848,475.648621 319.818268,475.101715 
	C319.818268,471.612366 319.924957,468.453583 319.755585,465.309662 
	C319.702271,464.319763 319.021851,462.605957 318.436035,462.518951 
	C312.187805,461.591003 313.278015,456.991425 313.074677,452.756317 
	C312.917358,449.480072 313.578552,447.393402 317.112732,446.551788 
	C318.183655,446.296722 319.614349,444.723572 319.698608,443.660492 
	C320.008331,439.754242 319.821442,435.808563 319.821442,431.246643 
	C315.725281,431.246643 312.225647,431.246643 308.726044,431.246643 
	C308.432465,430.888611 308.138916,430.530548 307.845337,430.172516 
	C318.934906,425.432617 322.383820,417.347717 318.958313,405.921326 
	C315.364807,405.921326 311.326538,405.921326 306.024994,405.921326 
	C310.452667,402.045105 313.956940,399.081635 317.322479,395.968170 
	C318.348724,395.018768 319.674774,393.672516 319.702911,392.480621 
	C319.906372,383.865295 319.812042,375.242920 319.812042,366.411194 
	C317.391296,366.411194 315.484406,366.411194 312.997314,366.411194 
	C312.997314,370.188690 312.997314,373.752106 312.997314,377.199158 
	C310.643982,377.199158 308.883118,377.199158 306.684845,377.199158 
	C306.684845,373.684998 306.684845,370.439819 306.684845,367.171234 
	C304.194702,367.171234 302.159882,367.171234 299.716064,367.171234 
	C299.716064,370.793427 299.716064,374.042206 299.716064,377.526794 
	C297.523468,377.412720 295.769806,377.321503 294.036652,377.231323 
	C294.036652,370.951630 294.036652,365.072876 294.036652,358.725037 
	C302.795135,358.725037 311.206482,358.725037 319.607788,358.725037 
	C319.607788,356.126434 319.607788,354.009644 319.607788,351.398865 
	C310.999146,351.398865 302.583313,351.398865 293.932983,351.398865 
	C293.932983,348.683838 293.932983,346.465424 293.932983,343.760315 
	C302.584900,343.760315 311.001038,343.760315 319.539307,343.760315 
	C319.539307,341.034363 319.539307,338.799347 319.539307,336.534149 
	C308.552521,336.534149 297.850647,336.534149 287.033539,336.534149 
	C287.033539,352.921875 287.033539,368.915222 287.028351,385.523956 
	C287.035187,385.729004 287.042023,385.934021 287.005768,387.012817 
M455.618073,458.074982 
	C458.437469,441.049591 459.311035,423.934998 456.957977,406.814453 
	C454.762085,390.837311 450.244141,376.113129 431.487152,369.975494 
	C446.695679,365.106323 453.037445,354.182800 454.579987,340.525299 
	C456.282257,325.453674 456.448853,310.228180 452.870544,295.301727 
	C449.016571,279.225708 439.134491,268.937225 422.663086,265.847168 
	C416.645111,264.718201 410.440613,264.179077 404.313141,264.112610 
	C384.652100,263.899323 364.987305,264.027618 345.323944,264.042938 
	C343.896423,264.044037 342.469055,264.196045 341.161835,264.270996 
	C341.161835,344.013550 341.161835,423.276459 341.161835,502.692566 
	C365.345642,502.692566 389.310211,503.198242 413.239716,502.501160 
	C427.374725,502.089355 439.821198,496.298553 446.696503,483.186768 
	C450.650421,475.646301 452.555115,467.031311 455.618073,458.074982 
M316.878052,334.186523 
	C322.793762,333.663025 318.553345,329.483917 320.024231,326.787048 
	C316.440002,326.787048 313.462585,326.787048 310.485199,326.787048 
	C307.596130,326.787048 304.707062,326.787048 301.817993,326.787048 
	C301.701508,326.356049 301.585022,325.925049 301.468536,325.494049 
	C305.986786,322.584808 310.310425,319.292053 315.077576,316.873352 
	C319.913544,314.419769 320.602051,311.010132 319.274719,305.901642 
	C315.514893,305.901642 311.890320,305.901642 307.219971,305.901642 
	C318.302643,300.521057 322.205688,293.515472 319.694641,284.956848 
	C317.379700,277.066620 311.152374,273.675812 301.514709,275.176727 
	C301.514709,279.896881 301.514709,284.641754 301.514709,289.554657 
	C303.462494,289.554657 305.173553,289.554657 306.922607,289.554657 
	C307.113861,287.026337 307.282867,284.791870 307.460876,282.438385 
	C312.588867,284.201416 314.508270,287.976410 312.786957,292.141022 
	C310.809723,296.924744 303.224701,299.234802 298.106323,296.235382 
	C296.245056,295.144623 293.834290,292.984039 293.781219,291.247192 
	C293.681091,287.970123 295.108521,284.646362 296.046082,280.737274 
	C295.211761,279.993195 293.649323,278.599670 292.069916,277.191010 
	C287.459442,281.041748 286.108154,285.721497 286.441833,290.903595 
	C286.932617,298.524902 291.964905,302.739166 298.266693,306.231049 
	C294.661011,306.231049 291.055328,306.231049 287.218079,306.231049 
	C287.218079,308.831604 287.218079,311.068878 287.218079,314.007874 
	C293.472717,314.007874 299.560211,314.007874 306.815857,314.007874 
	C301.029968,317.727539 296.609039,321.051727 291.761902,323.548584 
	C287.027924,325.987152 286.061462,329.320618 287.461548,334.185699 
	C297.025574,334.185699 306.504761,334.185699 316.878052,334.186523 
z"/>
<path fill="#FDFDFD" opacity="1.000000" stroke="none" 
	d="
M455.500183,458.487488 
	C452.555115,467.031311 450.650421,475.646301 446.696503,483.186768 
	C439.821198,496.298553 427.374725,502.089355 413.239716,502.501160 
	C389.310211,503.198242 365.345642,502.692566 341.161835,502.692566 
	C341.161835,423.276459 341.161835,344.013550 341.161835,264.270996 
	C342.469055,264.196045 343.896423,264.044037 345.323944,264.042938 
	C364.987305,264.027618 384.652100,263.899323 404.313141,264.112610 
	C410.440613,264.179077 416.645111,264.718201 422.663086,265.847168 
	C439.134491,268.937225 449.016571,279.225708 452.870544,295.301727 
	C456.448853,310.228180 456.282257,325.453674 454.579987,340.525299 
	C453.037445,354.182800 446.695679,365.106323 431.487152,369.975494 
	C450.244141,376.113129 454.762085,390.837311 456.957977,406.814453 
	C459.311035,423.934998 458.437469,441.049591 455.500183,458.487488 
M404.346466,458.011658 
	C409.122009,454.857819 410.793518,450.043518 410.864899,444.716125 
	C411.023010,432.913422 411.117126,421.099823 410.748657,409.305908 
	C410.627686,405.433563 409.686798,401.229309 407.839478,397.884521 
	C406.428467,395.329559 403.254456,392.980194 400.403229,392.176605 
	C396.549225,391.090454 392.253143,391.572784 388.005890,391.375610 
	C388.005890,414.796173 388.005890,437.644806 388.005890,461.965424 
	C393.625397,460.681671 398.654755,459.532745 404.346466,458.011658 
M387.705505,332.499756 
	C387.705505,339.571930 387.705505,346.644104 387.705505,353.987793 
	C390.271667,353.987793 392.237946,353.991211 394.204224,353.987213 
	C403.501831,353.968384 406.585327,352.018341 407.286072,342.875122 
	C408.133636,331.815338 407.887390,320.649323 407.642822,309.539673 
	C407.549713,305.311066 405.072906,301.719879 400.471497,301.179504 
	C396.295105,300.689056 392.015686,301.075775 387.705505,301.075775 
	C387.705505,311.567078 387.705505,321.533447 387.705505,332.499756 
z"/>
<path fill="#EFBACB" opacity="1.000000" stroke="none" 
	d="
M287.033539,384.908600 
	C287.033539,368.915222 287.033539,352.921875 287.033539,336.534149 
	C297.850647,336.534149 308.552521,336.534149 319.539307,336.534149 
	C319.539307,338.799347 319.539307,341.034363 319.539307,343.760315 
	C311.001038,343.760315 302.584900,343.760315 293.932983,343.760315 
	C293.932983,346.465424 293.932983,348.683838 293.932983,351.398865 
	C302.583313,351.398865 310.999146,351.398865 319.607788,351.398865 
	C319.607788,354.009644 319.607788,356.126434 319.607788,358.725037 
	C311.206482,358.725037 302.795135,358.725037 294.036652,358.725037 
	C294.036652,365.072876 294.036652,370.951630 294.036652,377.231323 
	C295.769806,377.321503 297.523468,377.412720 299.716064,377.526794 
	C299.716064,374.042206 299.716064,370.793427 299.716064,367.171234 
	C302.159882,367.171234 304.194702,367.171234 306.684845,367.171234 
	C306.684845,370.439819 306.684845,373.684998 306.684845,377.199158 
	C308.883118,377.199158 310.643982,377.199158 312.997314,377.199158 
	C312.997314,373.752106 312.997314,370.188690 312.997314,366.411194 
	C315.484406,366.411194 317.391296,366.411194 319.812042,366.411194 
	C319.812042,375.242920 319.906372,383.865295 319.702911,392.480621 
	C319.674774,393.672516 318.348724,395.018768 317.322479,395.968170 
	C313.956940,399.081635 310.452667,402.045105 306.024994,405.921326 
	C311.326538,405.921326 315.364807,405.921326 318.958313,405.921326 
	C322.383820,417.347717 318.934906,425.432617 307.845337,430.172516 
	C308.138916,430.530548 308.432465,430.888611 308.726044,431.246643 
	C312.225647,431.246643 315.725281,431.246643 319.821442,431.246643 
	C319.821442,435.808563 320.008331,439.754242 319.698608,443.660492 
	C319.614349,444.723572 318.183655,446.296722 317.112732,446.551788 
	C313.578552,447.393402 312.917358,449.480072 313.074677,452.756317 
	C313.278015,456.991425 312.187805,461.591003 318.436035,462.518951 
	C319.021851,462.605957 319.702271,464.319763 319.755585,465.309662 
	C319.924957,468.453583 319.818268,471.612366 319.818268,475.101715 
	C314.025848,475.648621 308.495667,476.170776 302.965515,476.692902 
	C302.931000,477.021667 302.896484,477.350433 302.861969,477.679199 
	C307.352417,479.265808 311.909729,480.693237 316.293335,482.534271 
	C317.640594,483.100128 319.094818,484.673157 319.382263,486.023010 
	C319.552124,486.820770 317.719513,488.545166 316.463226,489.056580 
	C311.885468,490.920105 307.171265,492.448364 302.543365,494.946564 
	C308.138641,495.464661 313.733917,495.982758 319.551941,496.521454 
	C319.551941,499.006775 319.551941,501.236908 319.551941,503.960693 
	C308.743286,502.993805 298.185211,502.049316 287.308777,501.076355 
	C287.308777,498.367859 287.308777,495.806549 287.308777,492.994232 
	C292.892975,490.800079 298.578766,488.565979 305.479492,485.854523 
	C300.703705,483.970825 297.089539,482.127197 293.255127,481.132233 
	C287.698486,479.690460 285.464478,476.746368 287.560333,470.646698 
	C294.885895,469.931976 302.579102,469.181427 310.272308,468.430847 
	C310.329651,468.064484 310.386993,467.698151 310.444336,467.331787 
	C303.897736,464.645111 297.395966,461.840302 290.782349,459.330261 
	C288.160614,458.335297 286.821808,457.254364 286.825806,454.079987 
	C286.829712,450.989288 288.392120,450.133301 290.683228,449.231293 
	C298.337921,446.217804 305.953888,443.105957 313.381775,439.228882 
	C304.837280,439.228882 296.292786,439.228882 287.414917,439.228882 
	C287.414917,433.872986 286.681793,428.650391 287.709656,423.801025 
	C288.262543,421.192657 291.565247,417.820831 294.116272,417.328735 
	C297.190582,416.735657 300.848175,418.660004 304.114380,419.869720 
	C305.123016,420.243256 305.677399,421.843262 306.546875,423.027557 
	C309.961792,420.155060 313.238953,417.398468 317.606201,413.724915 
	C306.716583,413.724915 297.069458,413.724915 287.203308,413.724915 
	C287.203308,410.913239 287.203308,408.794769 287.203308,406.133423 
	C290.948273,406.133423 294.816162,406.133423 298.684082,406.133423 
	C298.857635,405.769836 299.031189,405.406281 299.204742,405.042694 
	C297.143188,403.307129 295.231049,401.341858 292.989166,399.883545 
	C288.234436,396.790649 285.733368,392.824280 287.345551,386.659119 
	C292.611450,390.419037 297.537567,394.532654 302.579956,398.743347 
	C307.551422,394.314514 312.296814,390.087036 318.109680,384.908600 
	C306.798462,384.908600 296.916016,384.908600 287.033539,384.908600 
M298.087280,424.760010 
	C293.209747,424.447357 292.827087,427.447845 293.242798,431.315430 
	C295.938782,431.315430 298.490540,431.315430 302.622192,431.315430 
	C301.023468,428.647339 299.903015,426.777466 298.087280,424.760010 
M303.537842,456.768341 
	C304.440430,457.003845 305.343018,457.239319 306.302094,457.489563 
	C306.302094,455.171051 306.302094,453.167450 306.302094,450.718018 
	C303.246674,451.970490 300.674622,453.024872 297.458801,454.343109 
	C299.824646,455.269043 301.349487,455.865814 303.537842,456.768341 
z"/>
<path fill="#EFBACB" opacity="1.000000" stroke="none" 
	d="
M316.431000,334.186096 
	C306.504761,334.185699 297.025574,334.185699 287.461548,334.185699 
	C286.061462,329.320618 287.027924,325.987152 291.761902,323.548584 
	C296.609039,321.051727 301.029968,317.727539 306.815857,314.007874 
	C299.560211,314.007874 293.472717,314.007874 287.218079,314.007874 
	C287.218079,311.068878 287.218079,308.831604 287.218079,306.231049 
	C291.055328,306.231049 294.661011,306.231049 298.266693,306.231049 
	C291.964905,302.739166 286.932617,298.524902 286.441833,290.903595 
	C286.108154,285.721497 287.459442,281.041748 292.069916,277.191010 
	C293.649323,278.599670 295.211761,279.993195 296.046082,280.737274 
	C295.108521,284.646362 293.681091,287.970123 293.781219,291.247192 
	C293.834290,292.984039 296.245056,295.144623 298.106323,296.235382 
	C303.224701,299.234802 310.809723,296.924744 312.786957,292.141022 
	C314.508270,287.976410 312.588867,284.201416 307.460876,282.438385 
	C307.282867,284.791870 307.113861,287.026337 306.922607,289.554657 
	C305.173553,289.554657 303.462494,289.554657 301.514709,289.554657 
	C301.514709,284.641754 301.514709,279.896881 301.514709,275.176727 
	C311.152374,273.675812 317.379700,277.066620 319.694641,284.956848 
	C322.205688,293.515472 318.302643,300.521057 307.219971,305.901642 
	C311.890320,305.901642 315.514893,305.901642 319.274719,305.901642 
	C320.602051,311.010132 319.913544,314.419769 315.077576,316.873352 
	C310.310425,319.292053 305.986786,322.584808 301.468536,325.494049 
	C301.585022,325.925049 301.701508,326.356049 301.817993,326.787048 
	C304.707062,326.787048 307.596130,326.787048 310.485199,326.787048 
	C313.462585,326.787048 316.440002,326.787048 320.024231,326.787048 
	C318.553345,329.483917 322.793762,333.663025 316.431000,334.186096 
z"/>
<path fill="#030303" opacity="1.000000" stroke="none" 
	d="
M287.030945,385.216278 
	C296.916016,384.908600 306.798462,384.908600 318.109680,384.908600 
	C312.296814,390.087036 307.551422,394.314514 302.579956,398.743347 
	C297.537567,394.532654 292.611450,390.419037 287.367096,386.222229 
	C287.042023,385.934021 287.035187,385.729004 287.030945,385.216278 
z"/>
<path fill="#030303" opacity="1.000000" stroke="none" 
	d="
M404.015259,458.197754 
	C398.654755,459.532745 393.625397,460.681671 388.005890,461.965424 
	C388.005890,437.644806 388.005890,414.796173 388.005890,391.375610 
	C392.253143,391.572784 396.549225,391.090454 400.403229,392.176605 
	C403.254456,392.980194 406.428467,395.329559 407.839478,397.884521 
	C409.686798,401.229309 410.627686,405.433563 410.748657,409.305908 
	C411.117126,421.099823 411.023010,432.913422 410.864899,444.716125 
	C410.793518,450.043518 409.122009,454.857819 404.015259,458.197754 
z"/>
<path fill="#030303" opacity="1.000000" stroke="none" 
	d="
M387.705505,331.999756 
	C387.705505,321.533447 387.705505,311.567078 387.705505,301.075775 
	C392.015686,301.075775 396.295105,300.689056 400.471497,301.179504 
	C405.072906,301.719879 407.549713,305.311066 407.642822,309.539673 
	C407.887390,320.649323 408.133636,331.815338 407.286072,342.875122 
	C406.585327,352.018341 403.501831,353.968384 394.204224,353.987213 
	C392.237946,353.991211 390.271667,353.987793 387.705505,353.987793 
	C387.705505,346.644104 387.705505,339.571930 387.705505,331.999756 
z"/>
<path fill="#030303" opacity="1.000000" stroke="none" 
	d="
M298.434937,424.833801 
	C299.903015,426.777466 301.023468,428.647339 302.622192,431.315430 
	C298.490540,431.315430 295.938782,431.315430 293.242798,431.315430 
	C292.827087,427.447845 293.209747,424.447357 298.434937,424.833801 
z"/>
<path fill="#030303" opacity="1.000000" stroke="none" 
	d="
M303.206116,456.615479 
	C301.349487,455.865814 299.824646,455.269043 297.458801,454.343109 
	C300.674622,453.024872 303.246674,451.970490 306.302094,450.718018 
	C306.302094,453.167450 306.302094,455.171051 306.302094,457.489563 
	C305.343018,457.239319 304.440430,457.003845 303.206116,456.615479 
z"/>
</svg>